<svg xmlns="http://www.w3.org/2000/svg" viewBox="0 0 512 512">
  <!-- Arka plan -->
  <rect width="512" height="512" rx="100" fill="#1a1a1a"/>
  
  <!-- Hesap makinesi ekranı -->
  <rect x="80" y="80" width="352" height="100" rx="15" fill="#0a0a0a"/>
  <text x="410" y="150" font-family="Arial, sans-serif" font-size="60" fill="#ffffff" text-anchor="end">123</text>
  
  <!-- Butonlar -->
  <!-- İlk satır -->
  <rect x="80" y="210" width="70" height="70" rx="10" fill="#dc3545"/>
  <text x="115" y="260" font-family="Arial, sans-serif" font-size="40" fill="#ffffff" text-anchor="middle">C</text>
  
  <rect x="170" y="210" width="70" height="70" rx="10" fill="#ff9500"/>
  <text x="205" y="260" font-family="Arial, sans-serif" font-size="40" fill="#ffffff" text-anchor="middle">/</text>
  
  <rect x="260" y="210" width="70" height="70" rx="10" fill="#ff9500"/>
  <text x="295" y="260" font-family="Arial, sans-serif" font-size="40" fill="#ffffff" text-anchor="middle">×</text>
  
  <rect x="350" y="210" width="82" height="70" rx="10" fill="#ff9500"/>
  <text x="391" y="260" font-family="Arial, sans-serif" font-size="40" fill="#ffffff" text-anchor="middle">-</text>
  
  <!-- İkinci satır -->
  <rect x="80" y="300" width="70" height="70" rx="10" fill="#4a4a4a"/>
  <text x="115" y="350" font-family="Arial, sans-serif" font-size="40" fill="#ffffff" text-anchor="middle">7</text>
  
  <rect x="170" y="300" width="70" height="70" rx="10" fill="#4a4a4a"/>
  <text x="205" y="350" font-family="Arial, sans-serif" font-size="40" fill="#ffffff" text-anchor="middle">8</text>
  
  <rect x="260" y="300" width="70" height="70" rx="10" fill="#4a4a4a"/>
  <text x="295" y="350" font-family="Arial, sans-serif" font-size="40" fill="#ffffff" text-anchor="middle">9</text>
  
  <rect x="350" y="300" width="82" height="70" rx="10" fill="#ff9500"/>
  <text x="391" y="350" font-family="Arial, sans-serif" font-size="40" fill="#ffffff" text-anchor="middle">+</text>
  
  <!-- Üçüncü satır -->
  <rect x="80" y="390" width="70" height="70" rx="10" fill="#4a4a4a"/>
  <text x="115" y="440" font-family="Arial, sans-serif" font-size="40" fill="#ffffff" text-anchor="middle">4</text>
  
  <rect x="170" y="390" width="70" height="70" rx="10" fill="#4a4a4a"/>
  <text x="205" y="440" font-family="Arial, sans-serif" font-size="40" fill="#ffffff" text-anchor="middle">5</text>
  
  <rect x="260" y="390" width="70" height="70" rx="10" fill="#4a4a4a"/>
  <text x="295" y="440" font-family="Arial, sans-serif" font-size="40" fill="#ffffff" text-anchor="middle">6</text>
  
  <!-- Equals butonu (2 satır) -->
  <rect x="350" y="390" width="82" height="160" rx="10" fill="#28a745"/>
  <text x="391" y="485" font-family="Arial, sans-serif" font-size="50" fill="#ffffff" text-anchor="middle">=</text>
</svg>
